STARTFONT 2.1
FONT -WRI-Mathematica1Mono-Medium-R-Normal--26-260-75-75-M-160-Adobe-FontSpecific
SIZE 26 75 75
FONTBOUNDINGBOX 33 27 0 -5
STARTPROPERTIES 16
FOUNDRY "WRI"
FAMILY_NAME "Mathematica1Mono"
WEIGHT_NAME "Medium"
SLANT "R"
SETWIDTH_NAME "Normal"
PIXEL_SIZE 26
POINT_SIZE 260
RESOLUTION_X 75
RESOLUTION_Y 75
SPACING "M"
AVERAGE_WIDTH 160
CHARSET_REGISTRY "Adobe"
CHARSET_ENCODING "FontSpecific"
FONT_DESCENT 5
FONT_ASCENT 22
DEFAULT_CHAR 32
ENDPROPERTIES
CHARS 224
STARTCHAR space
ENCODING 32
SWIDTH 263 0
DWIDTH 7 0
BBX 0 0 0 0
BITMAP
ENDCHAR
STARTCHAR Exclamation
ENCODING 33
SWIDTH 600 0
DWIDTH 16 0
BBX 3 15 6 0
BITMAP
40
40
40
40
40
40
40
40
40
00
00
00
e0
e0
e0
ENDCHAR
STARTCHAR ForAll
ENCODING 34
SWIDTH 600 0
DWIDTH 16 0
BBX 12 15 2 0
BITMAP
8010
8010
4010
4020
4020
3fc0
2040
2040
1080
1080
0900
0900
0900
0600
0600
ENDCHAR
STARTCHAR NumberSign
ENCODING 35
SWIDTH 600 0
DWIDTH 16 0
BBX 11 18 2 -1
BITMAP
0880
0880
0880
0880
1080
1100
ffe0
1100
1100
1100
1100
ffe0
1100
1100
2200
2200
2200
2200
ENDCHAR
STARTCHAR Exists
ENCODING 36
SWIDTH 600 0
DWIDTH 16 0
BBX 11 15 2 0
BITMAP
ffe0
0020
0020
0020
0020
0020
0020
0fe0
0020
0020
0020
0020
0020
0020
ffe0
ENDCHAR
STARTCHAR Percent
ENCODING 37
SWIDTH 600 0
DWIDTH 16 0
BBX 12 16 2 0
BITMAP
1c00
2200
4100
4100
4100
2210
1ce0
0300
1c00
6380
8440
0820
0820
0820
0440
0380
ENDCHAR
STARTCHAR Ampersand
ENCODING 38
SWIDTH 600 0
DWIDTH 16 0
BBX 11 14 2 0
BITMAP
1c00
6300
4000
4000
6000
2000
3000
50e0
8880
8500
8700
8200
c700
78e0
ENDCHAR
STARTCHAR SmallMember
ENCODING 39
SWIDTH 600 0
DWIDTH 16 0
BBX 11 12 2 0
BITMAP
3f00
c0c0
8040
0020
0020
0020
7fe0
0020
0040
00c0
8180
7e00
ENDCHAR
STARTCHAR LParen
ENCODING 40
SWIDTH 600 0
DWIDTH 16 0
BBX 5 21 7 -5
BITMAP
08
10
30
20
60
40
40
80
80
80
80
80
80
80
40
40
40
20
20
10
08
ENDCHAR
STARTCHAR RParen
ENCODING 41
SWIDTH 600 0
DWIDTH 16 0
BBX 4 21 4 -5
BITMAP
80
80
40
40
20
20
20
10
10
10
10
10
10
10
20
20
20
40
40
80
80
ENDCHAR
STARTCHAR Star
ENCODING 42
SWIDTH 600 0
DWIDTH 16 0
BBX 9 9 3 1
BITMAP
0800
0800
0800
c980
3e00
1c00
3600
2200
6300
ENDCHAR
STARTCHAR Plus
ENCODING 43
SWIDTH 600 0
DWIDTH 16 0
BBX 11 11 2 0
BITMAP
0400
0400
0400
0400
0400
ffe0
0400
0400
0400
0400
0400
ENDCHAR
STARTCHAR Comma
ENCODING 44
SWIDTH 600 0
DWIDTH 16 0
BBX 3 6 5 -3
BITMAP
60
60
40
c0
c0
80
ENDCHAR
STARTCHAR Minus
ENCODING 45
SWIDTH 600 0
DWIDTH 16 0
BBX 10 1 3 5
BITMAP
ffc0
ENDCHAR
STARTCHAR Period
ENCODING 46
SWIDTH 600 0
DWIDTH 16 0
BBX 4 3 6 0
BITMAP
60
f0
60
ENDCHAR
STARTCHAR Slash
ENCODING 47
SWIDTH 600 0
DWIDTH 16 0
BBX 8 18 4 -2
BITMAP
01
01
01
02
02
04
04
08
08
10
10
20
20
40
40
40
80
80
ENDCHAR
STARTCHAR Zero
ENCODING 48
SWIDTH 600 0
DWIDTH 16 0
BBX 10 16 3 0
BITMAP
1e00
2100
4080
4080
8040
8040
8040
8040
8040
8040
8040
8040
4080
4080
2100
1e00
ENDCHAR
STARTCHAR One
ENCODING 49
SWIDTH 600 0
DWIDTH 16 0
BBX 11 16 2 0
BITMAP
0c00
3400
c400
0400
0400
0400
0400
0400
0400
0400
0400
0400
0400
0400
0400
ffe0
ENDCHAR
STARTCHAR Two
ENCODING 50
SWIDTH 600 0
DWIDTH 16 0
BBX 10 16 2 0
BITMAP
1e00
6180
c080
8040
0040
0040
00c0
0080
0100
0600
0c00
1800
2040
4040
8040
ffc0
ENDCHAR
STARTCHAR Three
ENCODING 51
SWIDTH 600 0
DWIDTH 16 0
BBX 9 16 3 0
BITMAP
3c00
c200
0100
0100
0100
0100
0200
1c00
0300
0100
0080
0080
0080
0100
8300
7c00
ENDCHAR
STARTCHAR Four
ENCODING 52
SWIDTH 600 0
DWIDTH 16 0
BBX 11 16 2 0
BITMAP
0300
0300
0500
0900
0900
1100
3100
2100
4100
4100
8100
ffe0
0100
0100
0100
0fe0
ENDCHAR
STARTCHAR Five
ENCODING 53
SWIDTH 600 0
DWIDTH 16 0
BBX 11 16 2 0
BITMAP
7fc0
4000
4000
4000
4000
4000
5f00
60c0
0040
0020
0020
0020
0020
0040
c080
3f00
ENDCHAR
STARTCHAR Six
ENCODING 54
SWIDTH 600 0
DWIDTH 16 0
BBX 10 16 3 0
BITMAP
07c0
1800
3000
6000
4000
4000
8000
9e00
a180
c080
8040
8040
8040
40c0
2180
1f00
ENDCHAR
STARTCHAR Seven
ENCODING 55
SWIDTH 600 0
DWIDTH 16 0
BBX 10 16 2 0
BITMAP
ffc0
8040
8040
0040
0080
0080
0100
0100
0100
0200
0200
0200
0400
0400
0400
0800
ENDCHAR
STARTCHAR Eight
ENCODING 56
SWIDTH 600 0
DWIDTH 16 0
BBX 10 16 3 0
BITMAP
3e00
6300
c180
8080
8080
8080
4100
6300
3e00
6100
c080
8040
8040
8080
6180
3e00
ENDCHAR
STARTCHAR Nine
ENCODING 57
SWIDTH 600 0
DWIDTH 16 0
BBX 10 16 3 0
BITMAP
3e00
6100
4080
8080
8040
8040
8040
40c0
6140
1e40
0040
0080
0080
0100
0600
f800
ENDCHAR
STARTCHAR Colon
ENCODING 58
SWIDTH 600 0
DWIDTH 16 0
BBX 4 10 6 0
BITMAP
60
f0
60
00
00
00
00
60
f0
60
ENDCHAR
STARTCHAR SemiColon
ENCODING 59
SWIDTH 600 0
DWIDTH 16 0
BBX 5 13 5 -3
BITMAP
30
78
30
00
00
00
00
70
60
60
40
c0
c0
ENDCHAR
STARTCHAR Less
ENCODING 60
SWIDTH 600 0
DWIDTH 16 0
BBX 11 12 2 0
BITMAP
0020
00c0
0300
0c00
3000
c000
c000
3000
0c00
0300
00c0
0020
ENDCHAR
STARTCHAR Equal
ENCODING 61
SWIDTH 600 0
DWIDTH 16 0
BBX 10 6 3 3
BITMAP
ffc0
0000
0000
0000
0000
ffc0
ENDCHAR
STARTCHAR Greater
ENCODING 62
SWIDTH 600 0
DWIDTH 16 0
BBX 10 12 3 0
BITMAP
8000
c000
3000
0c00
0300
00c0
00c0
0300
0c00
3000
c000
8000
ENDCHAR
STARTCHAR Question
ENCODING 63
SWIDTH 600 0
DWIDTH 16 0
BBX 9 15 4 0
BITMAP
7c00
8300
8180
0080
0080
0080
0300
0c00
1000
1000
0000
0000
3800
3800
3800
ENDCHAR
STARTCHAR TildeFullEqual
ENCODING 64
SWIDTH 600 0
DWIDTH 16 0
BBX 10 9 3 2
BITMAP
7040
8cc0
8780
0000
0000
ffc0
0000
0000
ffc0
ENDCHAR
STARTCHAR CapAlpha
ENCODING 65
SWIDTH 600 0
DWIDTH 16 0
BBX 15 15 0 0
BITMAP
0100
0280
0280
0240
0440
0440
0820
0820
0810
1ff0
1010
2008
2008
2008
f83e
ENDCHAR
STARTCHAR CapBeta
ENCODING 66
SWIDTH 600 0
DWIDTH 16 0
BBX 12 15 2 0
BITMAP
ff80
2040
2020
2020
2020
2020
20c0
3f80
2060
2010
2010
2010
2010
2060
ffc0
ENDCHAR
STARTCHAR CapChi
ENCODING 67
SWIDTH 600 0
DWIDTH 16 0
BBX 14 15 1 0
BITMAP
f8f8
2020
3040
1040
0880
0500
0700
0200
0500
0880
18c0
1040
2020
4010
f8fc
ENDCHAR
STARTCHAR CapDelta
ENCODING 68
SWIDTH 600 0
DWIDTH 16 0
BBX 13 15 1 0
BITMAP
0200
0500
0500
0880
0880
0880
1040
1040
2020
2020
4010
4010
4010
8008
fff8
ENDCHAR
STARTCHAR CapEpsilon
ENCODING 69
SWIDTH 600 0
DWIDTH 16 0
BBX 13 15 1 0
BITMAP
fff8
1008
1008
1008
1080
1080
1080
1f80
1080
1080
1000
1008
1008
1008
fff8
ENDCHAR
STARTCHAR CapPhi
ENCODING 70
SWIDTH 600 0
DWIDTH 16 0
BBX 13 15 1 0
BITMAP
7ff0
0200
0200
1fc0
6230
c218
8208
8208
8208
4210
6230
1fc0
0200
0200
7ff0
ENDCHAR
STARTCHAR CapGamma
ENCODING 71
SWIDTH 600 0
DWIDTH 16 0
BBX 13 15 1 0
BITMAP
fff8
0808
0808
0808
0808
0800
0800
0800
0800
0800
0800
0800
0800
0800
fe00
ENDCHAR
STARTCHAR CapEta
ENCODING 72
SWIDTH 600 0
DWIDTH 16 0
BBX 14 15 1 0
BITMAP
f87c
2010
2010
2010
2010
2010
2010
3ff0
2010
2010
2010
2010
2010
2010
f87c
ENDCHAR
STARTCHAR CapIota
ENCODING 73
SWIDTH 600 0
DWIDTH 16 0
BBX 11 15 2 0
BITMAP
ffe0
0400
0400
0400
0400
0400
0400
0400
0400
0400
0400
0400
0400
0400
ffe0
ENDCHAR
STARTCHAR CurlyTheta
ENCODING 74
SWIDTH 600 0
DWIDTH 16 0
BBX 14 15 1 0
BITMAP
01e0
0210
0418
2408
4408
4208
8308
80c8
8038
8014
8030
8020
4040
6180
1e00
ENDCHAR
STARTCHAR CapKappa
ENCODING 75
SWIDTH 600 0
DWIDTH 16 0
BBX 14 15 1 0
BITMAP
fef8
1020
1040
10c0
1180
1300
1600
1500
1880
1080
1040
1040
1020
1020
fe3c
ENDCHAR
STARTCHAR CapLambda
ENCODING 76
SWIDTH 600 0
DWIDTH 16 0
BBX 15 15 0 0
BITMAP
0100
0280
0280
0240
0440
0440
0820
0820
0810
1010
1010
2008
2008
2008
f83e
ENDCHAR
STARTCHAR CapMu
ENCODING 77
SWIDTH 600 0
DWIDTH 16 0
BBX 15 15 0 0
BITMAP
f01e
3818
2828
2828
2448
2448
2448
2288
2288
2188
2108
2008
2008
2008
fc7e
ENDCHAR
STARTCHAR CapNu
ENCODING 78
SWIDTH 600 0
DWIDTH 16 0
BBX 15 15 0 0
BITMAP
f87e
1808
1408
1408
1208
1208
1108
1088
1088
1048
1048
1028
1028
1018
fc18
ENDCHAR
STARTCHAR CapOmicron
ENCODING 79
SWIDTH 600 0
DWIDTH 16 0
BBX 13 15 1 0
BITMAP
0f80
3060
2020
4010
4018
8008
8008
8008
8008
8008
4010
4010
2020
3060
0f80
ENDCHAR
STARTCHAR CapPi
ENCODING 80
SWIDTH 600 0
DWIDTH 16 0
BBX 14 15 1 0
BITMAP
fffc
2010
2010
2010
2010
2010
2010
2010
2010
2010
2010
2010
2010
2010
f87c
ENDCHAR
STARTCHAR CapTheta
ENCODING 81
SWIDTH 600 0
DWIDTH 16 0
BBX 13 15 1 0
BITMAP
0f80
3060
2020
4010
4010
8008
9048
9fc8
9048
8008
c018
4010
2020
3060
0f80
ENDCHAR
STARTCHAR CapRho
ENCODING 82
SWIDTH 600 0
DWIDTH 16 0
BBX 12 15 2 0
BITMAP
ff80
2060
2030
2010
2010
2010
2030
2060
3f80
2000
2000
2000
2000
2000
fe00
ENDCHAR
STARTCHAR CapSigma
ENCODING 83
SWIDTH 600 0
DWIDTH 16 0
BBX 13 15 1 0
BITMAP
7ff0
2010
1010
1810
0800
0400
0200
0300
0200
0400
0800
1008
2008
4008
fff8
ENDCHAR
STARTCHAR CapTau
ENCODING 84
SWIDTH 600 0
DWIDTH 16 0
BBX 13 15 1 0
BITMAP
fff8
8208
8208
8208
0200
0200
0200
0200
0200
0200
0200
0200
0200
0200
1fc0
ENDCHAR
STARTCHAR CapUpsilon
ENCODING 85
SWIDTH 600 0
DWIDTH 16 0
BBX 13 15 1 0
BITMAP
e038
1040
0880
0500
0500
0500
0300
0200
0200
0200
0200
0200
0200
0200
1fc0
ENDCHAR
STARTCHAR FinalSigma
ENCODING 86
SWIDTH 600 0
DWIDTH 16 0
BBX 11 16 2 -4
BITMAP
0780
1860
2020
4000
4000
8000
8000
8000
8000
c000
6000
1e00
01c0
0040
0040
0380
ENDCHAR
STARTCHAR CapOmega
ENCODING 87
SWIDTH 600 0
DWIDTH 16 0
BBX 14 15 1 0
BITMAP
0f80
3060
6030
4010
8008
8008
8008
8008
8008
4010
2020
18c0
0880
0880
f8fc
ENDCHAR
STARTCHAR CapXi
ENCODING 88
SWIDTH 600 0
DWIDTH 16 0
BBX 13 15 1 0
BITMAP
fff8
8008
8008
8008
0000
0000
1040
1fc0
1040
0000
0000
8008
8008
8008
fff8
ENDCHAR
STARTCHAR CapPsi
ENCODING 89
SWIDTH 600 0
DWIDTH 16 0
BBX 13 15 1 0
BITMAP
7ff0
0200
0200
8208
8208
8208
8208
8208
8208
4210
6230
1fc0
0200
0200
7ff0
ENDCHAR
STARTCHAR CapZeta
ENCODING 90
SWIDTH 600 0
DWIDTH 16 0
BBX 11 15 2 0
BITMAP
ffc0
8040
8080
8180
8100
0200
0400
0c00
0800
1000
2020
2020
4020
8020
ffe0
ENDCHAR
STARTCHAR LBracket
ENCODING 91
SWIDTH 600 0
DWIDTH 16 0
BBX 4 21 7 -5
BITMAP
f0
80
80
80
80
80
80
80
80
80
80
80
80
80
80
80
80
80
80
80
f0
ENDCHAR
STARTCHAR Therefore
ENCODING 92
SWIDTH 600 0
DWIDTH 16 0
BBX 14 12 1 0
BITMAP
0300
0780
0300
0000
0000
0000
0000
0000
0000
6018
f03c
6018
ENDCHAR
STARTCHAR RBracket
ENCODING 93
SWIDTH 600 0
DWIDTH 16 0
BBX 4 21 4 -5
BITMAP
f0
10
10
10
10
10
10
10
10
10
10
10
10
10
10
10
10
10
10
10
f0
ENDCHAR
STARTCHAR Perpendicular
ENCODING 94
SWIDTH 600 0
DWIDTH 16 0
BBX 13 13 1 0
BITMAP
0200
0200
0200
0200
0200
0200
0200
0200
0200
0200
0200
0200
fff8
ENDCHAR
STARTCHAR Underbar
ENCODING 95
SWIDTH 600 0
DWIDTH 16 0
BBX 12 1 2 -3
BITMAP
fff0
ENDCHAR
STARTCHAR Hat
ENCODING 96
SWIDTH 600 0
DWIDTH 16 0
BBX 8 5 4 0
BITMAP
18
3c
66
c3
81
ENDCHAR
STARTCHAR Alpha
ENCODING 97
SWIDTH 600 0
DWIDTH 16 0
BBX 13 12 1 0
BITMAP
0f08
3088
6050
4050
4060
8020
8060
8060
80a0
8120
4330
3c18
ENDCHAR
STARTCHAR Beta
ENCODING 98
SWIDTH 600 0
DWIDTH 16 0
BBX 13 20 1 -4
BITMAP
03e0
0618
0808
0808
1010
1030
11c0
3030
2010
2008
2008
2008
4008
4010
4830
47c0
c000
8000
8000
8000
ENDCHAR
STARTCHAR Chi
ENCODING 99
SWIDTH 600 0
DWIDTH 16 0
BBX 14 16 0 -4
BITMAP
1c04
2408
0210
0230
0260
0240
0180
0100
0300
0480
0880
1080
3080
2040
4044
8038
ENDCHAR
STARTCHAR Delta
ENCODING 100
SWIDTH 600 0
DWIDTH 16 0
BBX 12 16 2 0
BITMAP
03f0
0c10
0800
0800
0600
0380
0c60
3030
4010
4010
8010
8010
8020
8040
4180
3e00
ENDCHAR
STARTCHAR Epsilon
ENCODING 101
SWIDTH 600 0
DWIDTH 16 0
BBX 12 12 1 0
BITMAP
07e0
1810
2000
4000
4000
8000
ffe0
8000
8000
4000
6070
1f80
ENDCHAR
STARTCHAR Phi
ENCODING 102
SWIDTH 600 0
DWIDTH 16 0
BBX 13 20 1 -4
BITMAP
0080
0080
0080
0080
0100
0fe0
3110
6108
4208
8208
8208
8208
8210
8410
4420
35c0
0e00
0800
0800
0800
ENDCHAR
STARTCHAR Gamma
ENCODING 103
SWIDTH 600 0
DWIDTH 16 0
BBX 14 16 1 -4
BITMAP
8004
600c
1818
0c30
0660
0240
0180
0100
0280
0680
0480
0c80
0880
0880
0900
0600
ENDCHAR
STARTCHAR Eta
ENCODING 104
SWIDTH 600 0
DWIDTH 16 0
BBX 11 17 2 -5
BITMAP
c3c0
2420
3820
3020
2020
4020
4040
4040
4040
4040
8040
8080
0080
0080
0080
0080
0100
ENDCHAR
STARTCHAR Iota
ENCODING 105
SWIDTH 600 0
DWIDTH 16 0
BBX 9 11 4 0
BITMAP
2000
2000
4000
4000
4000
4000
8000
8000
8000
8380
7c00
ENDCHAR
STARTCHAR CurlyPhi
ENCODING 106
SWIDTH 600 0
DWIDTH 16 0
BBX 13 16 1 -4
BITMAP
1060
2190
4108
4108
8208
8208
8208
8208
8410
c430
4460
3580
0e00
0800
0800
0800
ENDCHAR
STARTCHAR Kappa
ENCODING 107
SWIDTH 600 0
DWIDTH 16 0
BBX 14 11 1 0
BITMAP
380c
0830
08c0
1100
1600
1a00
1100
2080
2040
2020
e018
ENDCHAR
STARTCHAR Lambda
ENCODING 108
SWIDTH 600 0
DWIDTH 16 0
BBX 13 16 1 0
BITMAP
1c00
0300
0180
0080
0080
0040
00c0
0140
0140
0240
0640
0440
0840
1020
3030
e018
ENDCHAR
STARTCHAR Mu
ENCODING 109
SWIDTH 600 0
DWIDTH 16 0
BBX 12 15 1 -4
BITMAP
1010
2010
2020
2020
2020
2020
4040
4040
40c0
6360
7c10
8000
8000
8000
8000
ENDCHAR
STARTCHAR Nu
ENCODING 110
SWIDTH 600 0
DWIDTH 16 0
BBX 12 12 2 0
BITMAP
8010
c010
2020
3040
1040
1080
0880
0900
0a00
0a00
0c00
0c00
ENDCHAR
STARTCHAR Omicron
ENCODING 111
SWIDTH 600 0
DWIDTH 16 0
BBX 13 12 1 0
BITMAP
0fc0
1830
2010
4008
8008
8008
8008
8008
8010
4020
6040
1f80
ENDCHAR
STARTCHAR Pi
ENCODING 112
SWIDTH 600 0
DWIDTH 16 0
BBX 14 11 1 0
BITMAP
7ffc
0420
0820
0840
0840
1040
1040
3040
2040
4020
8030
ENDCHAR
STARTCHAR Theta
ENCODING 113
SWIDTH 600 0
DWIDTH 16 0
BBX 14 15 1 0
BITMAP
03e0
0c10
1008
2004
6004
4004
c004
fffc
8004
8008
8008
8010
4020
20c0
1f00
ENDCHAR
STARTCHAR Rho
ENCODING 114
SWIDTH 600 0
DWIDTH 16 0
BBX 13 16 1 -4
BITMAP
07c0
0c30
1010
1008
2008
2008
2008
4008
6010
6030
5860
4f80
8000
8000
8000
8000
ENDCHAR
STARTCHAR Sigma
ENCODING 115
SWIDTH 600 0
DWIDTH 16 0
BBX 14 11 2 0
BITMAP
0ffc
3040
4020
4010
8010
8010
8010
8020
4020
60c0
1f00
ENDCHAR
STARTCHAR Tau
ENCODING 116
SWIDTH 600 0
DWIDTH 16 0
BBX 10 11 3 0
BITMAP
ffc0
0800
1000
1000
1000
1000
2000
2000
2000
21c0
1e00
ENDCHAR
STARTCHAR Upsilon
ENCODING 117
SWIDTH 600 0
DWIDTH 16 0
BBX 13 12 2 0
BITMAP
4000
4018
2020
2020
2020
2040
4040
8040
8040
8080
4180
3e00
ENDCHAR
STARTCHAR CurlyPi
ENCODING 118
SWIDTH 600 0
DWIDTH 16 0
BBX 15 11 1 0
BITMAP
fffe
2008
6008
4108
c108
8208
8208
8210
8210
c720
79c0
ENDCHAR
STARTCHAR Omega
ENCODING 119
SWIDTH 600 0
DWIDTH 16 0
BBX 13 12 1 0
BITMAP
1010
1008
2008
4008
4108
8108
8208
8208
8210
8210
c720
79c0
ENDCHAR
STARTCHAR Xi
ENCODING 120
SWIDTH 600 0
DWIDTH 16 0
BBX 14 20 2 -4
BITMAP
03f0
0c0c
0800
1000
1000
1000
0800
07c0
1800
6000
4000
8000
8000
8000
6000
1f80
00c0
0040
20c0
1f00
ENDCHAR
STARTCHAR Psi
ENCODING 121
SWIDTH 600 0
DWIDTH 16 0
BBX 13 20 2 -4
BITMAP
0080
0080
0100
0100
4100
6118
2210
2220
2220
4220
4220
8440
8440
8440
6580
3f00
0800
0800
0800
0800
ENDCHAR
STARTCHAR Zeta
ENCODING 122
SWIDTH 600 0
DWIDTH 16 0
BBX 12 20 2 -4
BITMAP
01e0
1210
0c30
0bc0
1000
1000
2000
2000
4000
4000
4000
4000
4000
2000
1e00
0180
0040
8040
c0c0
3f00
ENDCHAR
STARTCHAR LBrace
ENCODING 123
SWIDTH 600 0
DWIDTH 16 0
BBX 6 21 5 -5
BITMAP
0c
10
20
20
20
20
20
20
20
40
80
40
20
20
20
20
20
20
20
10
0c
ENDCHAR
STARTCHAR VertBar
ENCODING 124
SWIDTH 600 0
DWIDTH 16 0
BBX 1 21 7 -5
BITMAP
80
80
80
80
80
80
80
80
80
80
80
80
80
80
80
80
80
80
80
80
80
ENDCHAR
STARTCHAR RBrace
ENCODING 125
SWIDTH 600 0
DWIDTH 16 0
BBX 7 21 4 -5
BITMAP
c0
20
10
10
10
10
10
10
10
0c
02
0c
10
10
10
10
10
10
10
20
c0
ENDCHAR
STARTCHAR Tilde
ENCODING 126
SWIDTH 600 0
DWIDTH 16 0
BBX 10 3 3 4
BITMAP
7040
8cc0
8780
ENDCHAR
STARTCHAR DEL
ENCODING 127
SWIDTH 263 0
DWIDTH 7 0
BBX 0 0 0 0
BITMAP
ENDCHAR
STARTCHAR FractionBarExt
ENCODING 128
SWIDTH 240 0
DWIDTH 6 0
BBX 6 1 0 5
BITMAP
fc
ENDCHAR
STARTCHAR EscapeChar
ENCODING 129
SWIDTH 291 0
DWIDTH 8 0
BBX 5 14 2 -2
BITMAP
f8
f8
00
00
00
00
f8
f8
00
00
00
00
f8
f8
ENDCHAR
STARTCHAR SelectPlaceholder
ENCODING 130
SWIDTH 600 0
DWIDTH 16 0
BBX 11 12 2 0
BITMAP
ffe0
ffe0
ffe0
ffe0
ffe0
ffe0
ffe0
ffe0
ffe0
ffe0
ffe0
ffe0
ENDCHAR
STARTCHAR Placeholder
ENCODING 131
SWIDTH 600 0
DWIDTH 16 0
BBX 12 12 2 0
BITMAP
fff0
8010
8010
8010
8010
8010
8010
8010
8010
8010
8010
fff0
ENDCHAR
STARTCHAR Continuation
ENCODING 132
SWIDTH 600 0
DWIDTH 16 0
BBX 6 11 5 0
BITMAP
c0
40
00
00
30
10
00
00
00
0c
0c
ENDCHAR
STARTCHAR Skeleton
ENCODING 133
SWIDTH 600 0
DWIDTH 16 0
BBX 8 4 4 4
BITMAP
ff
ff
ff
ff
ENDCHAR
STARTCHAR LSkeleton
ENCODING 134
SWIDTH 1200 0
DWIDTH 31 0
BBX 23 11 5 0
BITMAP
001002
00e00c
030070
0c0180
300600
c01800
300600
0c0180
030070
00e00c
001002
ENDCHAR
STARTCHAR RSkeleton
ENCODING 135
SWIDTH 1200 0
DWIDTH 31 0
BBX 24 11 3 0
BITMAP
c01800
700f00
1c01c0
038070
00e01c
003807
00e01c
038070
1c01c0
700f00
c01800
ENDCHAR
STARTCHAR Spacer
ENCODING 136
SWIDTH 600 0
DWIDTH 16 0
BBX 14 4 1 -4
BITMAP
8004
8004
8004
fffc
ENDCHAR
STARTCHAR Cross
ENCODING 137
SWIDTH 600 0
DWIDTH 16 0
BBX 7 8 4 2
BITMAP
82
c6
6c
38
38
6c
c6
82
ENDCHAR
STARTCHAR DblEqual
ENCODING 138
SWIDTH 798 0
DWIDTH 21 0
BBX 15 6 3 3
BITMAP
fefe
0000
0000
0000
0000
fefe
ENDCHAR
STARTCHAR Grave
ENCODING 139
SWIDTH 600 0
DWIDTH 16 0
BBX 5 5 5 0
BITMAP
c0
60
30
10
08
ENDCHAR
STARTCHAR Acute
ENCODING 140
SWIDTH 600 0
DWIDTH 16 0
BBX 5 5 5 0
BITMAP
18
30
60
40
80
ENDCHAR
STARTCHAR DoubleAcute
ENCODING 141
SWIDTH 600 0
DWIDTH 16 0
BBX 9 4 3 1
BITMAP
3980
6300
4600
8c00
ENDCHAR
STARTCHAR OverTilde
ENCODING 142
SWIDTH 600 0
DWIDTH 16 0
BBX 9 3 3 2
BITMAP
7080
8880
8700
ENDCHAR
STARTCHAR OverBar
ENCODING 143
SWIDTH 600 0
DWIDTH 16 0
BBX 8 1 4 2
BITMAP
ff
ENDCHAR
STARTCHAR DblUpDownArrow
ENCODING 144
SWIDTH 600 0
DWIDTH 16 0
BBX 10 18 3 0
BITMAP
0c00
1e00
3300
6180
e1c0
a140
2100
2100
2100
2100
2100
2100
a140
e1c0
6180
3300
1e00
0c00
ENDCHAR
STARTCHAR DblUpExtens1
ENCODING 145
SWIDTH 600 0
DWIDTH 16 0
BBX 6 5 5 0
BITMAP
84
84
84
84
84
ENDCHAR
STARTCHAR DblLongLArrow
ENCODING 146
SWIDTH 1200 0
DWIDTH 31 0
BBX 28 11 1 0
BITMAP
0c000000
10000000
3ffffff0
40000000
80000000
80000000
40000000
3ffffff0
10000000
08000000
04000000
ENDCHAR
STARTCHAR DblExtens
ENCODING 147
SWIDTH 200 0
DWIDTH 5 0
BBX 5 6 0 3
BITMAP
f8
00
00
00
00
f8
ENDCHAR
STARTCHAR DblLongRArrow
ENCODING 148
SWIDTH 1200 0
DWIDTH 31 0
BBX 28 11 1 0
BITMAP
00000300
00000080
ffffffc0
00000020
00000010
00000010
00000020
ffffffc0
00000080
00000100
00000300
ENDCHAR
STARTCHAR DblLRArrow2
ENCODING 149
SWIDTH 790 0
DWIDTH 21 0
BBX 18 11 1 0
BITMAP
040800
080400
3fff00
400080
800040
800040
400080
3fff00
100200
080400
040800
ENDCHAR
STARTCHAR DblLongLRArrow
ENCODING 150
SWIDTH 1200 0
DWIDTH 31 0
BBX 28 11 1 0
BITMAP
0c000300
10000080
3fffffc0
40000020
80000010
80000010
40000020
3fffffc0
10000080
08000100
04000300
ENDCHAR
STARTCHAR UpDownArrow
ENCODING 151
SWIDTH 600 0
DWIDTH 16 0
BBX 11 18 2 0
BITMAP
0400
0e00
1500
2480
4440
c420
0400
0400
0400
0400
0400
0400
c420
4440
2480
1500
0e00
0400
ENDCHAR
STARTCHAR LongLArrow
ENCODING 152
SWIDTH 1200 0
DWIDTH 31 0
BBX 28 11 1 0
BITMAP
04000000
08000000
10000000
20000000
40000000
fffffff0
40000000
20000000
10000000
08000000
04000000
ENDCHAR
STARTCHAR LongRArrow
ENCODING 153
SWIDTH 1200 0
DWIDTH 31 0
BBX 28 11 1 0
BITMAP
00000200
00000100
00000080
00000040
00000020
fffffff0
00000020
00000040
00000080
00000100
00000200
ENDCHAR
STARTCHAR LongLRArrow
ENCODING 154
SWIDTH 1200 0
DWIDTH 31 0
BBX 28 11 1 0
BITMAP
04000200
08000100
10000080
20000040
40000020
fffffff0
40000020
20000040
10000080
08000100
04000200
ENDCHAR
STARTCHAR ColonEqual
ENCODING 155
SWIDTH 696 0
DWIDTH 18 0
BBX 15 11 1 0
BITMAP
e000
e000
e7fe
0000
0000
0000
0000
07fe
e000
e000
4000
ENDCHAR
STARTCHAR Diamond2
ENCODING 156
SWIDTH 600 0
DWIDTH 16 0
BBX 10 11 3 2
BITMAP
0400
0c00
1200
2100
4080
8040
4080
2100
1200
0c00
0400
ENDCHAR
STARTCHAR NotSquareSprsetEqual
ENCODING 157
SWIDTH 600 0
DWIDTH 16 0
BBX 11 15 3 -2
BITMAP
ff00
0180
0040
0020
0020
0020
0020
0020
0040
0080
ff00
0000
0000
0000
ffc0
ENDCHAR
STARTCHAR AtSign
ENCODING 158
SWIDTH 600 0
DWIDTH 16 0
BBX 15 15 0 0
BITMAP
03e0
0c18
3004
2004
43d2
c632
8412
8812
8822
8822
8ce4
4718
2000
1800
07f8
ENDCHAR
STARTCHAR Solidmedsqr
ENCODING 159
SWIDTH 600 0
DWIDTH 16 0
BBX 9 10 3 2
BITMAP
ff80
ff80
ff80
ff80
ff80
ff80
ff80
ff80
ff80
ff80
ENDCHAR
STARTCHAR OverDot
ENCODING 160
SWIDTH 600 0
DWIDTH 16 0
BBX 3 3 6 1
BITMAP
e0
e0
e0
ENDCHAR
STARTCHAR CurlyCapUpsilon
ENCODING 161
SWIDTH 600 0
DWIDTH 16 0
BBX 14 15 1 0
BITMAP
e038
10cc
0884
0504
0500
0500
0300
0200
0200
0200
0200
0200
0200
0200
1fc0
ENDCHAR
STARTCHAR Prime
ENCODING 162
SWIDTH 371 0
DWIDTH 10 0
BBX 6 8 2 2
BITMAP
1c
18
38
30
60
60
c0
80
ENDCHAR
STARTCHAR LessEqual
ENCODING 163
SWIDTH 600 0
DWIDTH 16 0
BBX 10 12 3 0
BITMAP
0040
0180
0e00
3000
c000
3000
0e00
0180
0040
0000
0000
ffc0
ENDCHAR
STARTCHAR Fraction
ENCODING 164
SWIDTH 600 0
DWIDTH 16 0
BBX 13 18 1 0
BITMAP
0008
0010
0030
0020
0040
00c0
0080
0100
0200
0200
0400
0800
1800
1000
2000
6000
4000
8000
ENDCHAR
STARTCHAR Infinity
ENCODING 165
SWIDTH 695 0
DWIDTH 18 0
BBX 16 9 1 1
BITMAP
3c3c
42c6
8103
8101
8101
8101
4282
66c6
3c38
ENDCHAR
STARTCHAR RuleDelayed
ENCODING 166
SWIDTH 750 0
DWIDTH 19 0
BBX 17 11 1 0
BITMAP
e00800
e00c00
e00600
000300
000180
0fff80
000180
000300
e00600
e00c00
e00800
ENDCHAR
STARTCHAR ClubSuit
ENCODING 167
SWIDTH 600 0
DWIDTH 16 0
BBX 13 14 1 0
BITMAP
0700
0f80
1fc0
1fc0
1fc0
0f80
7ff0
fff8
fff8
fff8
fff8
7270
0200
0700
ENDCHAR
STARTCHAR DiamondSuit
ENCODING 168
SWIDTH 600 0
DWIDTH 16 0
BBX 12 15 2 0
BITMAP
0200
0600
0f00
0900
1080
2040
4020
8010
4020
2040
1080
0900
0f00
0600
0200
ENDCHAR
STARTCHAR HeartSuit
ENCODING 169
SWIDTH 600 0
DWIDTH 16 0
BBX 14 15 1 0
BITMAP
3870
4488
c70c
8304
8004
8004
8004
4008
6018
3030
1860
0cc0
0680
0300
0100
ENDCHAR
STARTCHAR SpadeSuit
ENCODING 170
SWIDTH 600 0
DWIDTH 16 0
BBX 11 15 2 0
BITMAP
0400
0400
0e00
1f00
3f00
3f80
7fc0
ffe0
ffe0
ffe0
ffe0
ffe0
75c0
0400
0400
ENDCHAR
STARTCHAR LRArrow
ENCODING 171
SWIDTH 790 0
DWIDTH 21 0
BBX 18 11 1 0
BITMAP
040800
080400
100200
200100
400080
ffffc0
400080
200100
100200
080400
040800
ENDCHAR
STARTCHAR LArrow
ENCODING 172
SWIDTH 720 0
DWIDTH 19 0
BBX 16 11 1 0
BITMAP
0400
0800
1000
2000
4000
ffff
4000
2000
1000
0800
0400
ENDCHAR
STARTCHAR UpArrow
ENCODING 173
SWIDTH 600 0
DWIDTH 16 0
BBX 11 17 2 0
BITMAP
0400
0e00
1500
3480
6440
c420
0400
0400
0400
0400
0400
0400
0400
0400
0400
0400
0400
ENDCHAR
STARTCHAR RArrow
ENCODING 174
SWIDTH 720 0
DWIDTH 19 0
BBX 16 11 1 0
BITMAP
0020
0010
0008
0004
0002
ffff
0002
0004
0008
0010
0020
ENDCHAR
STARTCHAR DownArrow
ENCODING 175
SWIDTH 600 0
DWIDTH 16 0
BBX 11 17 2 0
BITMAP
0400
0400
0400
0400
0400
0400
0400
0400
0400
0400
0400
c420
6440
3480
1500
0e00
0400
ENDCHAR
STARTCHAR Degree
ENCODING 176
SWIDTH 600 0
DWIDTH 16 0
BBX 8 8 4 10
BITMAP
3c
42
81
81
81
81
42
3c
ENDCHAR
STARTCHAR PlusMinus
ENCODING 177
SWIDTH 600 0
DWIDTH 16 0
BBX 11 13 2 0
BITMAP
0400
0400
0400
0400
0400
ffe0
0400
0400
0400
0400
0400
0000
ffe0
ENDCHAR
STARTCHAR DoublePrime
ENCODING 178
SWIDTH 569 0
DWIDTH 15 0
BBX 11 8 2 2
BITMAP
1ce0
18c0
39c0
3180
6300
6300
c200
8400
ENDCHAR
STARTCHAR GreaterEqual
ENCODING 179
SWIDTH 600 0
DWIDTH 16 0
BBX 11 12 3 0
BITMAP
c000
7000
1e00
0380
00e0
0380
1e00
7000
c000
0000
0000
ffe0
ENDCHAR
STARTCHAR Multiply
ENCODING 180
SWIDTH 600 0
DWIDTH 16 0
BBX 11 11 2 0
BITMAP
8020
4040
2080
1100
0a00
0400
0a00
1100
2080
4040
8020
ENDCHAR
STARTCHAR Proportional
ENCODING 181
SWIDTH 600 0
DWIDTH 16 0
BBX 13 9 2 1
BITMAP
38f0
4500
8200
8200
8200
8200
4500
4588
38f0
ENDCHAR
STARTCHAR PartialDiff
ENCODING 182
SWIDTH 600 0
DWIDTH 16 0
BBX 14 16 1 0
BITMAP
07e0
0810
0008
0004
0fc4
1864
2014
401c
800c
8008
8008
8018
8010
4020
60c0
1f00
ENDCHAR
STARTCHAR Bullet
ENCODING 183
SWIDTH 600 0
DWIDTH 16 0
BBX 7 6 5 5
BITMAP
38
7c
fe
fe
7c
38
ENDCHAR
STARTCHAR Divide
ENCODING 184
SWIDTH 600 0
DWIDTH 16 0
BBX 10 11 3 0
BITMAP
0c00
0c00
0000
0000
0000
ffc0
0000
0000
0000
0c00
0c00
ENDCHAR
STARTCHAR NotEqual
ENCODING 185
SWIDTH 600 0
DWIDTH 16 0
BBX 10 17 3 -3
BITMAP
0100
0200
0200
0200
0400
ffc0
0400
0400
0800
0800
ffc0
0800
1000
1000
1000
1000
2000
ENDCHAR
STARTCHAR Equivalence
ENCODING 186
SWIDTH 600 0
DWIDTH 16 0
BBX 10 9 3 1
BITMAP
ffc0
0000
0000
0000
ffc0
0000
0000
0000
ffc0
ENDCHAR
STARTCHAR Approxequal
ENCODING 187
SWIDTH 600 0
DWIDTH 16 0
BBX 10 8 3 2
BITMAP
7040
8cc0
8780
0000
0000
7040
8cc0
8780
ENDCHAR
STARTCHAR Ellipsis
ENCODING 188
SWIDTH 988 0
DWIDTH 26 0
BBX 20 3 3 0
BITMAP
e0e070
e0e070
e0e070
ENDCHAR
STARTCHAR ArrowVertEx
ENCODING 189
SWIDTH 600 0
DWIDTH 16 0
BBX 1 5 7 0
BITMAP
80
80
80
80
80
ENDCHAR
STARTCHAR ArrowHorizEx
ENCODING 190
SWIDTH 200 0
DWIDTH 5 0
BBX 5 1 0 5
BITMAP
f8
ENDCHAR
STARTCHAR CarriageReturn
ENCODING 191
SWIDTH 628 0
DWIDTH 16 0
BBX 14 16 1 0
BITMAP
0004
0004
0004
0004
0004
0204
0404
1804
3004
4004
fffc
4000
3000
1800
0c00
0200
ENDCHAR
STARTCHAR Aleph
ENCODING 192
SWIDTH 600 0
DWIDTH 16 0
BBX 11 15 2 0
BITMAP
c020
4020
2020
3020
1020
0840
3cc0
4580
4200
4100
4100
4080
4040
4060
4020
ENDCHAR
STARTCHAR IFraktur
ENCODING 193
SWIDTH 270 0
DWIDTH 7 0
BBX 6 15 1 0
BITMAP
70
88
10
10
10
10
10
10
10
10
10
10
20
30
0c
ENDCHAR
STARTCHAR RFraktur
ENCODING 194
SWIDTH 587 0
DWIDTH 15 0
BBX 14 15 1 0
BITMAP
0f80
3060
d010
1010
1010
1020
10c0
17c0
1020
1020
1020
1010
3010
3008
0c04
ENDCHAR
STARTCHAR Weierstrass
ENCODING 195
SWIDTH 600 0
DWIDTH 16 0
BBX 13 16 1 -4
BITMAP
01e0
0630
0410
8808
9008
b008
6008
4008
6410
5210
9a20
89c0
8800
8800
d800
7000
ENDCHAR
STARTCHAR CircleMultiply
ENCODING 196
SWIDTH 600 0
DWIDTH 16 0
BBX 14 14 1 0
BITMAP
0fc0
1860
2010
5028
c84c
8484
8304
8304
8484
c84c
5028
2010
1860
0fc0
ENDCHAR
STARTCHAR CirclePlus
ENCODING 197
SWIDTH 600 0
DWIDTH 16 0
BBX 14 14 1 0
BITMAP
0f80
1260
2210
4208
4208
8204
8204
fffc
8204
8204
4208
6210
3260
0f80
ENDCHAR
STARTCHAR EmptySet
ENCODING 198
SWIDTH 600 0
DWIDTH 16 0
BBX 13 22 1 -4
BITMAP
0020
0040
0040
0fc0
30e0
20a0
4090
4118
8108
8208
8208
8208
8408
c410
4410
2820
1860
1f80
1000
1000
1000
2000
ENDCHAR
STARTCHAR Union
ENCODING 199
SWIDTH 580 0
DWIDTH 15 0
BBX 13 18 1 0
BITMAP
8008
8008
8008
8008
8008
8008
8008
8008
8008
8008
8008
8008
8008
8008
4010
4010
3060
0f80
ENDCHAR
STARTCHAR Intersection
ENCODING 200
SWIDTH 580 0
DWIDTH 15 0
BBX 13 18 1 0
BITMAP
0f80
3060
4010
4010
8008
8008
8008
8008
8008
8008
8008
8008
8008
8008
8008
8008
8008
8008
ENDCHAR
STARTCHAR ProperSuperset
ENCODING 201
SWIDTH 600 0
DWIDTH 16 0
BBX 11 11 3 0
BITMAP
ff00
0180
0040
0020
0020
0020
0020
0020
0040
0080
ff00
ENDCHAR
STARTCHAR nbspace
ENCODING 202
SWIDTH 263 0
DWIDTH 7 0
BBX 0 0 0 0
BITMAP
ENDCHAR
STARTCHAR NotSubset
ENCODING 203
SWIDTH 600 0
DWIDTH 16 0
BBX 11 17 2 -3
BITMAP
0100
0100
0100
1fe0
2200
4200
8200
8400
8400
8400
8400
4800
2800
1fe0
0800
1000
1000
ENDCHAR
STARTCHAR ProperSubset
ENCODING 204
SWIDTH 600 0
DWIDTH 16 0
BBX 11 11 2 0
BITMAP
1fe0
3000
6000
c000
c000
c000
c000
c000
6000
3000
1fe0
ENDCHAR
STARTCHAR ReflexSubset
ENCODING 205
SWIDTH 600 0
DWIDTH 16 0
BBX 11 15 2 -2
BITMAP
1fe0
2000
4000
8000
8000
8000
8000
8000
4000
2000
1fe0
0000
0000
0000
7fe0
ENDCHAR
STARTCHAR Element
ENCODING 206
SWIDTH 600 0
DWIDTH 16 0
BBX 11 11 2 0
BITMAP
1fe0
2000
4000
8000
8000
ffe0
8000
8000
4000
2000
1fe0
ENDCHAR
STARTCHAR NotElement
ENCODING 207
SWIDTH 600 0
DWIDTH 16 0
BBX 11 17 2 -3
BITMAP
0100
0100
0100
1fe0
2200
4200
8200
8400
ffe0
8400
8400
4800
2800
1fe0
0800
1000
1000
ENDCHAR
STARTCHAR Angle
ENCODING 208
SWIDTH 600 0
DWIDTH 16 0
BBX 10 12 3 0
BITMAP
1800
1000
1000
3000
2000
2000
4000
4000
4000
8000
8000
ffc0
ENDCHAR
STARTCHAR Gradient
ENCODING 209
SWIDTH 600 0
DWIDTH 16 0
BBX 13 14 1 0
BITMAP
fff8
8008
4010
4010
2020
2020
1040
1040
0880
0880
0500
0500
0200
0200
ENDCHAR
STARTCHAR RegTM
ENCODING 210
SWIDTH 600 0
DWIDTH 16 0
BBX 16 15 0 0
BITMAP
07e0
1838
300c
67c6
4422
8421
8461
8781
84c1
8441
4422
4632
2004
1818
07e0
ENDCHAR
STARTCHAR Copyright
ENCODING 211
SWIDTH 600 0
DWIDTH 16 0
BBX 16 15 0 0
BITMAP
07e0
1838
300c
63a6
4462
8821
8801
8801
8801
8c01
4422
63c6
300c
1838
07e0
ENDCHAR
STARTCHAR TM
ENCODING 212
SWIDTH 600 0
DWIDTH 16 0
BBX 14 8 1 7
BITMAP
ff8c
a594
a554
2154
2164
2164
2104
739c
ENDCHAR
STARTCHAR Product
ENCODING 213
SWIDTH 631 0
DWIDTH 16 0
BBX 14 18 1 0
BITMAP
fffc
2008
2008
2008
2008
2008
2008
2008
2008
2008
2008
2008
2008
2008
2008
2008
2008
f87c
ENDCHAR
STARTCHAR Radical
ENCODING 214
SWIDTH 600 0
DWIDTH 16 0
BBX 14 26 1 -5
BITMAP
0004
0004
0004
0004
0008
0008
0008
0008
0010
0010
1010
7010
9020
1020
0820
0820
0c20
0440
0440
0240
0240
0380
0180
0180
0080
0080
ENDCHAR
STARTCHAR DotMath
ENCODING 215
SWIDTH 600 0
DWIDTH 16 0
BBX 4 3 6 4
BITMAP
60
f0
60
ENDCHAR
STARTCHAR LogicalNot
ENCODING 216
SWIDTH 600 0
DWIDTH 16 0
BBX 10 6 3 2
BITMAP
ffc0
0040
0040
0040
0040
0040
ENDCHAR
STARTCHAR Wedge
ENCODING 217
SWIDTH 600 0
DWIDTH 16 0
BBX 13 15 1 0
BITMAP
0200
0200
0500
0500
0880
0880
1040
1040
1040
2020
2020
4010
4010
8008
8008
ENDCHAR
STARTCHAR Vee
ENCODING 218
SWIDTH 600 0
DWIDTH 16 0
BBX 13 15 1 0
BITMAP
8008
8008
4010
4010
2020
2020
1040
1040
1040
0880
0880
0500
0500
0200
0200
ENDCHAR
STARTCHAR DblLRArrow
ENCODING 219
SWIDTH 790 0
DWIDTH 21 0
BBX 18 11 1 0
BITMAP
040800
080400
3fff00
400080
800040
800040
400080
3fff00
100200
080400
040800
ENDCHAR
STARTCHAR DblLArrow
ENCODING 220
SWIDTH 720 0
DWIDTH 19 0
BBX 16 11 1 0
BITMAP
0400
1800
3fff
4000
8000
8000
4000
3fff
1000
0800
0400
ENDCHAR
STARTCHAR DblUpArrow
ENCODING 221
SWIDTH 600 0
DWIDTH 16 0
BBX 10 17 3 0
BITMAP
0400
0c00
1200
2100
6180
a140
2100
2100
2100
2100
2100
2100
2100
2100
2100
2100
2100
ENDCHAR
STARTCHAR DblRArrow
ENCODING 222
SWIDTH 720 0
DWIDTH 19 0
BBX 17 11 1 0
BITMAP
003000
001c00
fffe00
000300
000180
000180
000300
fffe00
000c00
001800
003000
ENDCHAR
STARTCHAR DblDownArrow
ENCODING 223
SWIDTH 600 0
DWIDTH 16 0
BBX 11 17 3 0
BITMAP
3180
3180
3180
3180
3180
3180
3180
3180
3180
3180
3180
f1e0
71c0
3180
1b00
0e00
0600
ENDCHAR
STARTCHAR Lozenge
ENCODING 224
SWIDTH 600 0
DWIDTH 16 0
BBX 9 15 3 0
BITMAP
0800
0800
1400
2200
2200
4100
8080
8080
8080
4100
2200
2200
1400
0800
0800
ENDCHAR
STARTCHAR LAngle
ENCODING 225
SWIDTH 600 0
DWIDTH 16 0
BBX 6 19 5 -3
BITMAP
04
08
08
10
10
20
40
40
80
80
80
40
40
20
10
10
08
08
04
ENDCHAR
STARTCHAR Diffd
ENCODING 226
SWIDTH 598 0
DWIDTH 16 0
BBX 14 16 1 0
BITMAP
03f8
0048
0048
0048
0048
1e48
6148
40c8
8048
8048
8048
8048
8048
40c8
61c8
1e7c
ENDCHAR
STARTCHAR Expe
ENCODING 227
SWIDTH 600 0
DWIDTH 16 0
BBX 12 11 2 0
BITMAP
0f80
3440
4820
5010
9010
9ff0
9000
9000
4800
3c30
0fc0
ENDCHAR
STARTCHAR Imagi
ENCODING 228
SWIDTH 600 0
DWIDTH 16 0
BBX 10 17 3 0
BITMAP
0c00
0c00
0c00
0000
0000
0000
fe00
1200
1200
1200
1200
1200
1200
1200
1200
1200
ffc0
ENDCHAR
STARTCHAR Sum
ENCODING 229
SWIDTH 602 0
DWIDTH 16 0
BBX 14 18 1 0
BITMAP
7ff8
2008
2008
1008
0800
0c00
0400
0200
0100
0300
0200
0400
0800
1000
2004
4004
8004
fffc
ENDCHAR
STARTCHAR LParenTop
ENCODING 230
SWIDTH 600 0
DWIDTH 16 0
BBX 6 22 7 -1
BITMAP
04
08
08
10
10
20
20
40
40
40
40
40
80
80
80
80
80
80
80
80
80
80
ENDCHAR
STARTCHAR LParenEx
ENCODING 231
SWIDTH 600 0
DWIDTH 16 0
BBX 1 8 7 0
BITMAP
80
80
80
80
80
80
80
80
ENDCHAR
STARTCHAR LParenBot
ENCODING 232
SWIDTH 600 0
DWIDTH 16 0
BBX 6 22 7 0
BITMAP
80
80
80
80
80
80
80
80
80
80
40
40
40
40
40
20
20
10
10
08
08
04
ENDCHAR
STARTCHAR LBracketTop
ENCODING 233
SWIDTH 600 0
DWIDTH 16 0
BBX 5 4 7 0
BITMAP
f8
80
80
80
ENDCHAR
STARTCHAR LBracketEx
ENCODING 234
SWIDTH 600 0
DWIDTH 16 0
BBX 1 8 7 0
BITMAP
80
80
80
80
80
80
80
80
ENDCHAR
STARTCHAR LBracketBot
ENCODING 235
SWIDTH 600 0
DWIDTH 16 0
BBX 5 4 7 0
BITMAP
80
80
80
f8
ENDCHAR
STARTCHAR LBraceTop
ENCODING 236
SWIDTH 600 0
DWIDTH 16 0
BBX 7 17 7 -1
BITMAP
0e
30
60
40
80
80
80
80
80
80
80
80
80
80
80
80
80
ENDCHAR
STARTCHAR LBraceMid
ENCODING 237
SWIDTH 600 0
DWIDTH 16 0
BBX 6 19 2 -4
BITMAP
04
04
04
04
04
08
08
10
60
80
60
10
08
08
04
04
04
04
04
ENDCHAR
STARTCHAR LBraceBot
ENCODING 238
SWIDTH 600 0
DWIDTH 16 0
BBX 7 18 7 0
BITMAP
80
80
80
80
80
80
80
80
80
80
80
80
80
80
40
60
30
0e
ENDCHAR
STARTCHAR BraceEx
ENCODING 239
SWIDTH 600 0
DWIDTH 16 0
BBX 1 8 7 0
BITMAP
80
80
80
80
80
80
80
80
ENDCHAR
STARTCHAR Slot
ENCODING 240
SWIDTH 600 0
DWIDTH 16 0
BBX 15 15 0 0
BITMAP
1008
1008
1008
fffe
1008
1008
1008
1008
1008
1008
1008
fffe
1008
1008
1008
ENDCHAR
STARTCHAR RAngle
ENCODING 241
SWIDTH 600 0
DWIDTH 16 0
BBX 6 19 5 -3
BITMAP
80
40
40
20
20
10
08
08
04
04
04
08
08
10
20
20
40
40
80
ENDCHAR
STARTCHAR Intergral
ENCODING 242
SWIDTH 590 0
DWIDTH 15 0
BBX 12 26 1 -4
BITMAP
00e0
0110
0100
0200
0200
0200
0200
0200
0200
0200
0200
0200
0200
0200
0200
0200
0200
0200
0200
0200
0200
0200
0200
0400
8c00
7000
ENDCHAR
STARTCHAR IntegralTop
ENCODING 243
SWIDTH 796 0
DWIDTH 21 0
BBX 16 26 2 -4
BITMAP
0001
0001
0001
0001
0001
0001
0001
0001
0001
0001
0001
0001
0001
0001
0001
0002
0002
0002
0002
0004
0004
0008
8018
c030
6060
1f80
ENDCHAR
STARTCHAR IntegralEx
ENCODING 244
SWIDTH 796 0
DWIDTH 21 0
BBX 1 20 17 0
BITMAP
80
80
80
80
80
80
80
80
80
80
80
80
80
80
80
80
80
80
80
80
ENDCHAR
STARTCHAR IntegralBot
ENCODING 245
SWIDTH 796 0
DWIDTH 21 0
BBX 16 26 17 -4
BITMAP
01f8
0604
0803
1001
3000
2000
2000
4000
4000
4000
8000
8000
8000
8000
8000
8000
8000
8000
8000
8000
8000
8000
8000
8000
8000
8000
ENDCHAR
STARTCHAR RParenTop
ENCODING 246
SWIDTH 600 0
DWIDTH 16 0
BBX 5 22 3 -1
BITMAP
80
80
40
40
20
20
10
10
10
10
10
08
08
08
08
08
08
08
08
08
08
08
ENDCHAR
STARTCHAR RParenEx
ENCODING 247
SWIDTH 600 0
DWIDTH 16 0
BBX 1 8 7 0
BITMAP
80
80
80
80
80
80
80
80
ENDCHAR
STARTCHAR RParenBot
ENCODING 248
SWIDTH 600 0
DWIDTH 16 0
BBX 5 22 3 0
BITMAP
08
08
08
08
08
08
08
08
08
08
08
10
10
10
10
10
20
20
40
40
80
80
ENDCHAR
STARTCHAR RBracketTop
ENCODING 249
SWIDTH 600 0
DWIDTH 16 0
BBX 5 4 3 0
BITMAP
f8
08
08
08
ENDCHAR
STARTCHAR RBracketEx
ENCODING 250
SWIDTH 600 0
DWIDTH 16 0
BBX 1 8 7 0
BITMAP
80
80
80
80
80
80
80
80
ENDCHAR
STARTCHAR RBracketBot
ENCODING 251
SWIDTH 600 0
DWIDTH 16 0
BBX 5 4 3 0
BITMAP
08
08
08
f8
ENDCHAR
STARTCHAR RBraceTop
ENCODING 252
SWIDTH 600 0
DWIDTH 16 0
BBX 6 17 2 -1
BITMAP
e0
30
08
08
04
04
04
04
04
04
04
04
04
04
04
04
04
ENDCHAR
STARTCHAR RBraceMid
ENCODING 253
SWIDTH 600 0
DWIDTH 16 0
BBX 7 19 7 -4
BITMAP
80
80
80
80
80
40
40
20
18
06
18
20
40
40
80
80
80
80
80
ENDCHAR
STARTCHAR RBraceBot
ENCODING 254
SWIDTH 600 0
DWIDTH 16 0
BBX 6 18 2 0
BITMAP
04
04
04
04
04
04
04
04
04
04
04
04
04
04
08
08
30
c0
ENDCHAR
STARTCHAR Wolf
ENCODING 255
SWIDTH 835 0
DWIDTH 22 0
BBX 20 20 1 -4
BITMAP
008200
008400
018c00
019400
016800
024800
024800
022800
041800
040c00
084600
083300
100180
1600c0
21ffa0
208070
408000
408000
810000
810000
ENDCHAR
ENDFONT
